<svg class="features-svg" width="646" height="65" viewBox="0 0 646 65" fill="none" xmlns="http://www.w3.org/2000/svg">
<g clip-path="url(#clip0_1_1206)">
<path d="M0.269103 33.8564H7.10225L16.7403 49.7073H16.8V34.3201H14.1357V33.8564H19.9276V34.3201H17.2646V57.5688H16.4808L3.45334 36.2194H3.39717V57.1003H6.05796V57.5675H0.269103V57.1003H2.93338V34.3201H0.269103V33.8564ZM19.4939 33.8564H36.8047V39.553H36.4298C36.0248 38.0853 34.7802 34.3227 30.9562 34.3227H26.3527V44.613H27.9727C30.8073 44.613 31.7919 42.6496 32.3419 39.6505H32.7212V50.0071H32.3419C31.8219 47.4115 30.9566 45.0784 28.2919 45.0784H26.3527V57.099H31.0995C34.6587 57.099 36.8326 54.1346 37.613 50.2702H37.9879V57.5662H19.4895V57.1003H22.1538V34.3201H19.4939V33.8564ZM36.6597 33.8564H45.5474V34.3201H43.4336L48.6437 51.87H48.7029L51.7426 41.9467L49.4877 34.3201H47.923V33.8564H56.5765V34.3201H53.8865L59.1258 51.906H59.185L64.5388 34.3201H62.0496V33.8564H67.3781V34.3201H65.0335L57.5894 58.5H56.7502L52.0008 42.7129H51.9416L47.0821 58.5H46.242L39.0596 34.3201H36.6597V33.8564ZM24.609 18.7167C24.6145 21.1388 23.8978 23.5081 22.5497 25.5249C21.2016 27.5416 19.2827 29.1152 17.0357 30.0465C14.7887 30.9778 12.3146 31.2251 9.92632 30.7569C7.53807 30.2888 5.34303 29.1263 3.61888 27.4165C1.89472 25.7068 0.718936 23.5266 0.240264 21.1517C-0.238407 18.7769 0.0015438 16.3141 0.929762 14.075C1.85798 11.8359 3.43276 9.92109 5.45487 8.57275C7.47698 7.2244 9.85556 6.50315 12.2897 6.50023C13.9067 6.49043 15.5096 6.79943 17.006 7.40938C18.5023 8.01933 19.8624 8.91814 21.0078 10.0539C22.1531 11.1898 23.0611 12.54 23.6792 14.0269C24.2973 15.5137 24.6133 17.1077 24.609 18.7167ZM0.875293 18.7167C1.92713 20.8449 3.55707 22.6373 5.58038 23.8908C7.60368 25.1442 9.93941 25.8086 12.3228 25.8086C14.7062 25.8086 17.0419 25.1442 19.0652 23.8908C21.0885 22.6373 22.7185 20.8449 23.7703 18.7167C22.7067 16.602 21.0725 14.8236 19.0507 13.5807C17.0289 12.3378 14.6993 11.6795 12.3228 11.6795C9.94628 11.6795 7.61668 12.3378 5.59486 13.5807C3.57305 14.8236 1.93886 16.602 0.875293 18.7167ZM18.5824 18.7124C18.6015 19.9523 18.2493 21.1699 17.5706 22.21C16.8918 23.25 15.9174 24.0656 14.7712 24.5526C13.6251 25.0397 12.3593 25.1763 11.1349 24.945C9.91047 24.7137 8.78297 24.125 7.89599 23.2539C7.009 22.3827 6.40266 21.2686 6.15422 20.0534C5.90577 18.8382 6.02646 17.5769 6.5009 16.4301C6.97535 15.2834 7.78208 14.3031 8.81834 13.6142C9.8546 12.9253 11.0735 12.5589 12.3198 12.5617C13.1371 12.5551 13.9478 12.7091 14.7052 13.0149C15.4627 13.3207 16.152 13.7722 16.7337 14.3436C17.3154 14.915 17.7781 15.5951 18.0952 16.3448C18.4123 17.0944 18.5776 17.899 18.5815 18.7124M12.3245 30.9401C9.90078 30.943 7.53055 30.2308 5.51347 28.8936C3.49639 27.5564 1.923 25.6541 0.992189 23.4272C0.061377 21.2004 -0.185072 18.7489 0.283994 16.3827C0.753059 14.0165 1.91658 11.8418 3.62749 10.1334C5.3384 8.42511 7.51988 7.25985 9.89619 6.78496C12.2725 6.31006 14.737 6.54684 16.9781 7.46539C19.2192 8.38393 21.1363 9.94298 22.4871 11.9455C23.8379 13.948 24.5618 16.304 24.5672 18.7158C24.5868 20.323 24.2839 21.9179 23.6761 23.4071C23.0683 24.8963 22.1679 26.2497 21.0277 27.3882C19.8875 28.5267 18.5304 29.4273 17.036 30.0372C15.5415 30.6471 13.9397 30.9541 12.3245 30.9401ZM12.3245 11.6322C9.93979 11.6334 7.60238 12.2947 5.57362 13.542C3.54487 14.7892 1.90472 16.5734 0.836535 18.695C1.88384 20.838 3.51482 22.6454 5.54377 23.9112C7.57273 25.1771 9.91812 25.8506 12.3129 25.8552C14.7077 25.8597 17.0556 25.195 19.0894 23.9368C21.1232 22.6786 22.761 20.8774 23.8165 18.7384C22.7573 16.6055 21.1199 14.8099 19.0892 13.5543C17.0585 12.2988 14.7154 11.6333 12.3245 11.633M12.3202 24.8457C11.1076 24.8321 9.92618 24.462 8.92443 23.782C7.92267 23.102 7.14532 22.1424 6.69013 21.024C6.23493 19.9056 6.12221 18.6782 6.36614 17.4962C6.61006 16.3142 7.19975 15.2304 8.06104 14.3809C8.92233 13.5315 10.0168 12.9545 11.2068 12.7223C12.3968 12.4902 13.6292 12.6133 14.749 13.0762C15.8689 13.5391 16.8262 14.3212 17.5006 15.324C18.175 16.3269 18.5364 17.5057 18.5393 18.7124C18.5265 20.3447 17.8655 21.9057 16.7003 23.0547C15.5352 24.2038 13.9606 24.8476 12.3202 24.8457ZM36.1227 6.81872C34.1422 6.81872 31.6469 8.12955 29.7712 10.161C28.1347 11.9377 26.1824 15.0473 26.1824 19.7727C26.1824 25.8849 31.2035 30.6225 35.5213 30.6225C36.7984 30.6303 38.0584 30.3306 39.1938 29.7489L39.2151 29.7407C39.8777 29.3818 40.614 29.1787 41.3677 29.147C41.7292 29.156 42.0823 29.2575 42.3929 29.4418C42.7035 29.6261 42.9611 29.8869 43.141 30.1991L43.32 30.4916V21.1386H43.0587L43.0417 21.2253C42.4703 24.8219 40.0961 30.1796 35.8998 30.1796C31.7396 30.1796 30.887 26.1202 30.887 20.0293C30.887 14.0866 31.5136 7.26202 36.3901 7.26202C40.7336 7.26202 42.5918 13.6372 43.0613 15.5885L43.0783 15.6604H43.3308V7.14112L43.1566 7.39506C42.7351 8.00172 42.1381 8.12479 41.3154 8.12479C40.6923 8.07024 40.0844 7.90344 39.5212 7.63252L39.4912 7.61995C38.4349 7.12733 37.2887 6.85496 36.1227 6.81872ZM58.5444 17.8968C59.9471 17.5068 63.2628 16.4079 63.2628 12.8451C63.2628 11.0979 62.398 9.62585 60.7693 8.59062C59.2773 7.63729 57.1931 7.11469 54.9042 7.11469H44.322V7.57359H48.0009V29.872H44.322V30.3335H55.4155C60.6373 30.3335 64.1469 27.6069 64.1469 23.5518C64.1469 20.7694 62.3139 18.9199 58.5457 17.8977M55.732 17.6641H52.7098V7.57359H53.6243C57.7122 7.57359 58.9868 8.33278 58.9868 12.4217C58.9868 16.8035 57.8916 17.6052 55.7386 17.6052M52.712 18.1222H55.2195C57.484 18.1222 59.6954 18.6183 59.6954 23.7468C59.6954 28.9004 58.2801 29.8676 55.1045 29.8676H52.7094L52.712 18.1222ZM67.9852 29.248C68.7237 29.2895 69.4477 29.4695 70.1191 29.7784L70.1831 29.8035C71.3868 30.3324 72.6864 30.6111 74.0023 30.6225C77.1721 30.6225 81 27.1866 81 22.9235C81 18.4485 77.6407 17.337 74.3929 16.2597C71.5705 15.3224 68.9106 14.4397 68.9106 11.3436C68.9106 10.1177 69.2821 7.26332 72.6962 7.26332C76.903 7.26332 78.8984 13.876 78.8984 15.5092V15.6071H79.171L79.1797 6.92056L79.0003 7.15326C78.4973 7.81929 77.4918 7.87042 77.193 7.87042H77.0868C76.5832 7.81512 76.0905 7.68664 75.6244 7.48909C74.6973 7.09138 73.7049 6.86566 72.6962 6.82306C68.7769 6.82306 66.353 10.7165 66.353 14.3262C66.353 18.7245 69.691 19.9209 72.9218 21.0788C75.6588 22.0547 78.246 22.9751 78.246 25.8805C78.246 28.8324 76.0124 30.1562 73.7963 30.1562C68.3963 30.1562 66.4214 21.9442 66.4214 21.2526V21.2019H66.1536V30.2624L66.3238 30.0631C66.5035 29.7939 66.7515 29.5769 67.0426 29.4338C67.3338 29.2907 67.6577 29.2268 67.9817 29.2484M67.8711 56.579C68.6167 56.6223 69.3473 56.8064 70.0237 57.1216L70.0877 57.1471C71.3 57.6899 72.612 57.9773 73.9413 57.9913C77.1382 57.9913 81 54.4622 81 50.0808C81 45.4827 77.6111 44.3374 74.3332 43.2342C71.4904 42.2713 68.8026 41.3639 68.8026 38.1824C68.8026 36.9231 69.1741 33.9877 72.6183 33.9877C76.8634 33.9877 78.8757 40.7828 78.8757 42.4576V42.5599H79.1483L79.157 33.6333L78.9781 33.8707C78.4703 34.5537 77.4561 34.6074 77.153 34.6074H77.0423C76.5337 34.5514 76.0366 34.4184 75.5682 34.2131C74.6345 33.8053 73.6327 33.5737 72.6139 33.5301C68.6619 33.5301 66.2154 37.5298 66.2154 41.2374C66.2154 45.7549 69.583 46.9846 72.8395 48.1707C75.6022 49.1717 78.2064 50.1207 78.2064 53.1033C78.2064 56.1366 75.9515 57.4977 73.7209 57.4977C68.273 57.4977 66.282 49.0612 66.282 48.3544V48.3037H66.0094V57.6099L66.1797 57.4019C66.3644 57.1299 66.6173 56.9105 66.9133 56.7655C67.2093 56.6205 67.5383 56.5549 67.8676 56.5751" fill="black"/>
<path d="M214.5 0C208.072 0 201.789 1.90609 196.444 5.47724C191.099 9.04838 186.934 14.1242 184.474 20.0628C182.014 26.0014 181.37 32.536 182.624 38.8404C183.879 45.1448 186.974 50.9357 191.519 55.481C196.064 60.0262 201.855 63.1215 208.16 64.3755C214.464 65.6295 220.999 64.9859 226.937 62.5261C232.876 60.0662 237.952 55.9006 241.523 50.556C245.094 45.2114 247 38.9279 247 32.5C247 23.8805 243.576 15.614 237.481 9.51903C231.386 3.4241 223.12 0 214.5 0Z" fill="#07111E"/>
<path fill-rule="evenodd" clip-rule="evenodd" d="M233.582 23.5922C231.869 23.5903 230.191 24.082 228.749 25.0087C227.307 25.9354 226.163 27.2578 225.454 28.8177C224.744 30.3776 224.499 32.1089 224.747 33.8045C224.996 35.5002 225.727 37.0883 226.855 38.379C227.982 39.6696 229.458 40.6082 231.104 41.0823C232.751 41.5564 234.5 41.546 236.141 41.0524C237.782 40.5588 239.246 39.6028 240.358 38.2989C241.47 36.9949 242.183 35.3982 242.412 33.6997H237.32C237.036 34.5918 236.443 35.353 235.647 35.8458C234.851 36.3387 233.906 36.5307 232.981 36.3872C232.056 36.2437 231.213 35.7741 230.604 35.0633C229.995 34.3525 229.66 33.4474 229.66 32.5113C229.66 31.5753 229.995 30.6701 230.604 29.9593C231.213 29.2486 232.056 28.779 232.981 28.6355C233.906 28.492 234.851 28.684 235.647 29.1769C236.443 29.6697 237.036 30.4309 237.32 31.3229H242.412C242.124 29.1843 241.071 27.2225 239.447 25.801C237.824 24.3795 235.74 23.5948 233.582 23.5922ZM195.375 36.433C194.6 36.433 193.841 36.203 193.196 35.772C192.551 35.3411 192.049 34.7285 191.752 34.0119C191.455 33.2952 191.377 32.5066 191.529 31.7458C191.68 30.985 192.053 30.2861 192.602 29.7376C193.15 29.189 193.849 28.8154 194.61 28.664C195.371 28.5126 196.159 28.5902 196.876 28.887C197.593 29.1838 198.205 29.6864 198.636 30.3313C199.067 30.9763 199.297 31.7345 199.298 32.5102C199.298 33.0254 199.196 33.5354 198.999 34.0114C198.802 34.4873 198.513 34.9197 198.149 35.284C197.785 35.6483 197.352 35.9372 196.876 36.1344C196.401 36.3315 195.891 36.433 195.375 36.433ZM204.294 41.2787V32.5113C204.295 30.7473 203.772 29.0228 202.792 27.556C201.812 26.0891 200.419 24.9459 198.789 24.2707C197.159 23.5956 195.366 23.4189 193.635 23.7631C191.905 24.1072 190.316 24.9567 189.069 26.204C187.821 27.4514 186.972 29.0407 186.628 30.7709C186.284 32.5011 186.46 34.2944 187.135 35.9242C187.81 37.554 188.954 38.947 190.421 39.927C191.887 40.907 193.612 41.43 195.376 41.4299C196.876 41.4081 198.312 40.8201 199.397 39.7837V41.2787H204.294ZM214.459 28.5891C215.235 28.5889 215.994 28.8188 216.639 29.2497C217.284 29.6806 217.787 30.2932 218.084 31.01C218.381 31.7267 218.459 32.5155 218.308 33.2765C218.157 34.0375 217.783 34.7366 217.235 35.2853C216.686 35.834 215.987 36.2077 215.226 36.3592C214.465 36.5106 213.676 36.433 212.96 36.1361C212.243 35.8393 211.63 35.3365 211.199 34.6913C210.768 34.0462 210.538 33.2878 210.538 32.5119C210.538 31.9968 210.639 31.4868 210.836 31.0109C211.033 30.535 211.322 30.1026 211.686 29.7383C212.05 29.374 212.483 29.0851 212.958 28.8879C213.434 28.6907 213.944 28.5892 214.459 28.5891ZM205.541 19.2031V32.5113C205.541 34.2752 206.064 35.9995 207.044 37.4661C208.024 38.9326 209.417 40.0757 211.047 40.7506C212.676 41.4255 214.47 41.6021 216.2 41.2579C217.93 40.9137 219.519 40.0643 220.766 38.817C222.013 37.5697 222.863 35.9805 223.207 34.2505C223.551 32.5205 223.374 30.7273 222.699 29.0977C222.024 27.4681 220.881 26.0752 219.414 25.0953C217.948 24.1153 216.223 23.5922 214.459 23.5922C213.061 23.6043 211.697 24.0276 210.538 24.8094V19.2031H205.541Z" fill="#F0F0F0"/>
<path d="M380.5 18.3426C379.485 15.8123 377.016 13.0802 372.393 13.4558C366.503 14.0952 364.667 19.7427 365.557 23.1073C364.079 22.109 362.309 21.6349 360.53 21.761C358.75 21.887 357.065 22.6058 355.742 23.8026C351.247 28.3084 353.651 34.4019 356.122 35.8639C354.242 35.7804 352.395 36.3839 350.927 37.5618C349.459 38.7397 348.469 40.4115 348.143 42.2653C347.13 48.2422 351.686 51.7266 356.122 51.7266H405.318C410.449 51.7266 413.295 47.2885 412.976 43.1029C412.472 37.6402 407.474 35.5442 404.747 35.9928C407.025 34.7221 410.068 28.7517 405.439 24.0583C401.767 20.5654 397.085 21.8361 395.439 23.3598C396.328 20.4412 394.873 14.409 388.918 13.4547C388.524 13.4093 388.128 13.3856 387.731 13.3839C386.163 13.3691 384.628 13.8369 383.334 14.7239C382.041 15.6109 381.051 16.8742 380.5 18.3426Z" fill="white"/>
<path d="M401.389 24.8863L383.851 37.1356H405.445C409.875 37.1356 412.722 32.568 411.456 28.3761C411.031 27.0372 410.199 25.8644 409.076 25.0208C407.953 24.1773 406.594 23.705 405.19 23.6699C403.831 23.6891 402.507 24.1124 401.389 24.8857" fill="#0DB14B"/>
<path d="M393.607 14.3517L384.806 34.8523L403.479 21.9689C407.784 18.9161 407.089 14.0346 404.68 11.6216C404.052 10.9789 403.3 10.4694 402.47 10.1237C401.64 9.77791 400.749 9.60297 399.85 9.6093C397.53 9.6093 395.045 10.84 393.605 14.3511" fill="#0089D0"/>
<path d="M381.193 8.38435H382.964C382.964 8.38435 383.91 8.38435 384.038 8.83029C383.341 9.39984 381.444 9.46964 381.694 12.5119L384.672 32.5037L393.98 10.3541C395.882 5.40818 391.888 1.278 388.344 1.15173C388.179 1.13947 388.013 1.12988 387.841 1.12988C384.661 1.12988 381.016 3.44112 381.195 8.38435" fill="#6460AA"/>
<path d="M372.641 1.21382C369.604 1.27562 365.045 4.89007 367.074 10.4124L376.441 32.5067L379.733 9.27013C380.494 3.49629 376.125 0.830745 372.641 1.21382Z" fill="#CC004C"/>
<path d="M356.561 11.3046C353.964 13.6558 353.019 18.9837 357.701 22.0995L376.38 34.9131L367.323 14.1641C365.424 9.26725 360.233 8.19954 356.56 11.3052" fill="#F37021"/>
<path d="M356.058 37.1357H377.333L359.792 24.8863C355.739 22.2826 351.182 23.8042 349.537 28.1267C348.143 33.0748 351.623 37.1357 356.058 37.1357Z" fill="#FCB711"/>
<path d="M379.619 53.7675H383.565C384.251 53.8217 384.89 54.1324 385.357 54.6376C385.823 55.1428 386.082 55.8052 386.081 56.4928C386.08 57.2012 385.817 57.8841 385.341 58.4093C384.866 58.9345 384.213 59.2646 383.508 59.3357H379.618L379.619 53.7675ZM379.559 45.0298H382.809C383.444 45.0416 384.051 45.2981 384.502 45.7459C384.954 46.1936 385.215 46.7982 385.232 47.4337C385.259 48.0836 385.039 48.7194 384.617 49.2141C384.195 49.7087 383.601 50.0257 382.955 50.1014H379.559V45.0325M375.119 41.3972V62.9672H385.583C388.067 62.9672 391.021 60.4775 391.021 57.2243C391.044 56.0173 390.713 54.8299 390.069 53.8091C389.425 52.7883 388.495 51.979 387.395 51.4813C388.177 50.9735 388.814 50.272 389.245 49.4451C389.676 48.6181 389.885 47.6938 389.853 46.7619C389.736 42.4245 385.729 41.3978 384.355 41.3978L375.119 41.3972ZM359.065 62.9672V50.5436L372.63 63.7877V41.3972H368.072V53.5033L354.503 40.5203V62.9672H359.065ZM391.753 51.9486C391.868 58.7699 396.769 63.8698 403.069 63.8698C404.67 63.8599 406.256 63.5539 407.745 62.9672V58.5722C406.516 59.3255 405.103 59.725 403.662 59.7268C399.849 59.7268 396.252 56.903 396.401 51.7733C396.498 49.8867 397.311 48.1082 398.675 46.8005C400.038 45.4929 401.849 44.7546 403.738 44.7362C405.167 44.7421 406.561 45.1715 407.745 45.9702V41.6935C406.349 41.1199 404.855 40.8227 403.346 40.8186C397.059 40.8186 391.874 46.1199 391.753 51.9486Z" fill="black"/>
<path fill-rule="evenodd" clip-rule="evenodd" d="M576.928 16.0295C574.382 16.0295 572.326 18.3768 572.326 20.9999L572.319 43.9305C572.303 45.1738 572.78 46.3726 573.643 47.2635C574.507 48.1544 575.688 48.6644 576.926 48.6817C578.179 48.6874 579.383 48.2003 580.282 47.3247C581.181 46.4491 581.702 45.2547 581.734 43.9977V20.9999C581.734 18.3768 579.472 16.0295 576.929 16.0295M576.649 4.51773C582.163 4.51773 587.553 6.15938 592.137 9.23509C596.722 12.3108 600.295 16.6824 602.405 21.7971C604.515 26.9118 605.067 32.5399 603.992 37.9697C602.916 43.3994 600.261 48.3869 596.362 52.3016C592.463 56.2162 587.496 58.8821 582.088 59.9621C576.68 61.0422 571.074 60.4879 565.98 58.3693C560.886 56.2507 556.532 52.663 553.469 48.0599C550.405 43.4568 548.77 38.045 548.77 32.5089C548.77 28.8329 549.491 25.193 550.892 21.7968C552.293 18.4007 554.346 15.3149 556.935 12.7156C559.524 10.1163 562.597 8.05453 565.98 6.64793C569.362 5.24133 572.988 4.51749 576.649 4.51773ZM614.353 4.5L621.127 16.484L627.9 4.5H646L630.205 32.5495L646 60.5H627.809L621.127 48.6686L614.445 60.5H596.251L612.049 32.5495L596.251 4.5H614.353ZM548.681 4.5L549.703 19.7745H530.884V27.1011H546.231V42.4255H530.884V60.5H514V4.5H548.681Z" fill="#003998"/>
</g>
<defs>
<clipPath id="clip0_1_1206">
<rect width="646" height="65" fill="white"/>
</clipPath>
</defs>
</svg>
