<svg width="91" height="28" viewBox="0 0 91 28" fill="none" xmlns="http://www.w3.org/2000/svg">
<path d="M21.1549 7.18437C20.8148 7.33519 20.4652 7.46248 20.108 7.56581C20.5309 7.08752 20.8534 6.52474 21.0502 5.9089C21.0943 5.77086 21.0486 5.61976 20.9351 5.52947C20.8218 5.43912 20.6644 5.4283 20.5396 5.50224C19.7809 5.95219 18.9625 6.27554 18.1043 6.46462C17.2398 5.6199 16.0656 5.13916 14.8518 5.13916C12.2896 5.13916 10.2051 7.22361 10.2051 9.78572C10.2051 9.98751 10.2179 10.1882 10.2432 10.3861C7.06373 10.1069 4.10789 8.54418 2.07811 6.05434C2.00577 5.96559 1.89433 5.91776 1.78024 5.92691C1.66608 5.93585 1.56351 6.00023 1.50583 6.09917C1.09415 6.80557 0.876512 7.6135 0.876512 8.43554C0.876512 9.55516 1.27625 10.6175 1.98238 11.4475C1.76767 11.3732 1.55932 11.2802 1.36046 11.1698C1.2537 11.1104 1.12341 11.1113 1.01735 11.1721C0.911215 11.233 0.844673 11.3448 0.84188 11.4671C0.841391 11.4877 0.841391 11.5083 0.841391 11.5291C0.841391 13.2004 1.74086 14.705 3.11604 15.5251C2.9979 15.5133 2.87983 15.4962 2.76252 15.4738C2.64159 15.4507 2.51723 15.493 2.43568 15.5853C2.35398 15.6774 2.32696 15.8059 2.3646 15.9232C2.87361 17.5124 4.18413 18.6813 5.76843 19.0377C4.45442 19.8607 2.95174 20.2918 1.37429 20.2918C1.04514 20.2918 0.714102 20.2725 0.39012 20.2341C0.229176 20.215 0.0752848 20.31 0.0204732 20.4631C-0.0343385 20.6162 0.0237549 20.7869 0.160679 20.8747C2.18717 22.1741 4.53039 22.8608 6.93686 22.8608C11.6677 22.8608 14.6272 20.63 16.2768 18.7585C18.3338 16.4249 19.5135 13.3361 19.5135 10.2842C19.5135 10.1567 19.5116 10.0279 19.5077 9.8996C20.3192 9.28816 21.0179 8.54816 21.5865 7.69764C21.6729 7.56847 21.6635 7.39775 21.5635 7.27884C21.4636 7.15986 21.297 7.12139 21.1549 7.18437Z" fill="#475569"/>
<path d="M50.3543 4.13379V7.08022H48.6021C47.9622 7.08022 47.5306 7.21415 47.3074 7.482C47.0842 7.74986 46.9726 8.15165 46.9726 8.68736V10.7967H50.2427L49.8074 14.1003H46.9726V22.5713H43.5574V14.1003H40.7114V10.7967H43.5574V8.3637C43.5574 6.97977 43.9443 5.90648 44.7181 5.14383C45.4919 4.38118 46.5224 3.99986 47.8096 3.99986C48.9034 3.99986 49.7516 4.0445 50.3543 4.13379Z" fill="#475569"/>
<path fill-rule="evenodd" clip-rule="evenodd" d="M77.7311 16.7991V10.7256C79.8872 11.7401 81.5571 12.7202 83.5321 13.7769C81.9031 14.6802 79.8872 15.6939 77.7311 16.7991ZM89.747 7.70495C89.3751 7.21494 88.7412 6.83351 88.0664 6.70723C86.0827 6.33055 73.7078 6.32948 71.7253 6.70723C71.1841 6.80868 70.7022 7.05391 70.2882 7.43491C68.5439 9.05387 69.0905 17.7359 69.5109 19.1422C69.6877 19.7509 69.9163 20.19 70.2041 20.4781C70.575 20.8591 71.0827 21.1215 71.666 21.2391C73.2992 21.5769 81.7134 21.7658 88.0318 21.2898C88.614 21.1884 89.1293 20.9176 89.5357 20.5204C91.1485 18.9079 91.0385 9.73837 89.747 7.70495Z" fill="#475569"/>
</svg>
