<svg width="17" height="18" viewBox="0 0 17 18" fill="none" xmlns="http://www.w3.org/2000/svg">
<path d="M8.38569 1.70117C5.68136 1.70117 3.49414 3.88839 3.49414 6.59272C3.49414 10.2614 8.38569 15.677 8.38569 15.677C8.38569 15.677 13.2772 10.2614 13.2772 6.59272C13.2772 3.88839 11.09 1.70117 8.38569 1.70117ZM8.38569 8.3397C7.92236 8.3397 7.47801 8.15564 7.15038 7.82802C6.82276 7.5004 6.63871 7.05605 6.63871 6.59272C6.63871 6.12939 6.82276 5.68504 7.15038 5.35742C7.47801 5.02979 7.92236 4.84574 8.38569 4.84574C8.84901 4.84574 9.29337 5.02979 9.62099 5.35742C9.94861 5.68504 10.1327 6.12939 10.1327 6.59272C10.1327 7.05605 9.94861 7.5004 9.62099 7.82802C9.29337 8.15564 8.84901 8.3397 8.38569 8.3397Z" fill="#00927C"/>
</svg>
